<svg xmlns="http://www.w3.org/2000/svg" width="40" height="40" viewBox="0 0 40 40">
  <g id="Grupo_259" data-name="Grupo 259" transform="translate(-1740 -46)">
    <g id="Social_CTA_Tablet" data-name="Social CTA Tablet" transform="translate(1740 46)">
      <g id="Grupo_52" data-name="Grupo 52" transform="translate(-736 -248)">
        <path id="Caminho_84" data-name="Caminho 84" d="M20,0A20,20,0,1,1,0,20,20,20,0,0,1,20,0Z" transform="translate(736 248)" fill="#fff"/>
      </g>
    </g>
    <path id="envelope" d="M17.171,59.882H1.776A1.838,1.838,0,0,0,0,61.773V73.116a1.838,1.838,0,0,0,1.776,1.891H17.171a1.838,1.838,0,0,0,1.776-1.891V61.773A1.838,1.838,0,0,0,17.171,59.882Zm0,1.26a.558.558,0,0,1,.227.049L9.474,68.5l-7.924-7.31a.559.559,0,0,1,.227-.049Zm0,12.6H1.776a.612.612,0,0,1-.592-.63V62.523l7.9,7.289a.566.566,0,0,0,.776,0l7.9-7.289V73.116A.612.612,0,0,1,17.171,73.746Z" transform="translate(1750.849 -0.987)" fill="#106573" stroke="#106573" stroke-width="0.5"/>
  </g>
</svg>
