<svg xmlns="http://www.w3.org/2000/svg" width="40" height="40" viewBox="0 0 40 40">
  <g id="Grupo_260" data-name="Grupo 260" transform="translate(-54)">
    <g id="Grupo_53" data-name="Grupo 53" transform="translate(-730 -248)">
      <path id="Caminho_85" data-name="Caminho 85" d="M20,0A20,20,0,1,1,0,20,20,20,0,0,1,20,0Z" transform="translate(784 248)" fill="#fff"/>
    </g>
    <g id="Grupo_54" data-name="Grupo 54" transform="translate(-786 -248)">
      <path id="social-1_logo-instagram" d="M14.1,0H1.9A1.9,1.9,0,0,0,0,1.9V14.1A1.9,1.9,0,0,0,1.9,16H14.1A1.9,1.9,0,0,0,16,14.1V1.9A1.9,1.9,0,0,0,14.1,0ZM12,2h1.5a.472.472,0,0,1,.5.5V4a.472.472,0,0,1-.5.5H12a.472.472,0,0,1-.5-.5V2.5A.472.472,0,0,1,12,2ZM8,4.95A3.05,3.05,0,1,1,4.9,8,3.105,3.105,0,0,1,8,4.95Zm6,9.55H2a.472.472,0,0,1-.5-.5V6.5h2A3.151,3.151,0,0,0,3.15,8a4.85,4.85,0,1,0,9.7,0,2.275,2.275,0,0,0-.4-1.5h2V14A.414.414,0,0,1,14,14.5Z" transform="translate(852 260)" fill="#106573"/>
    </g>
  </g>
</svg>
