<svg width="44" height="44" viewBox="0 0 44 44" fill="none" xmlns="http://www.w3.org/2000/svg">
<rect x="0.0567017" width="43.9433" height="43.1443" rx="14" fill="#106573"/>
<path d="M32.2152 12.7835H12.6405C10.9884 12.7835 9.64435 14.1276 9.64435 15.7796V28.5631C9.64435 30.2152 10.9884 31.5593 12.6405 31.5593H32.2152C33.8673 31.5593 35.2114 30.2152 35.2114 28.5631V15.7796C35.2114 14.1276 33.8673 12.7835 32.2152 12.7835ZM33.2139 28.5631C33.2139 29.1138 32.7659 29.5619 32.2152 29.5619H12.6405C12.0898 29.5619 11.6418 29.1138 11.6418 28.5631V15.7796C11.6418 15.229 12.0898 14.7809 12.6405 14.7809H32.2152C32.7659 14.7809 33.2139 15.229 33.2139 15.7796V28.5631Z" fill="#EFEFEF"/>
<path d="M33.0444 14.0287L22.4279 21.9254L11.8114 14.0287L10.6192 15.6314L22.4279 24.4148L34.2365 15.6314L33.0444 14.0287Z" fill="#EFEFEF"/>
</svg>
