<svg width="44" height="44" viewBox="0 0 44 44" fill="none" xmlns="http://www.w3.org/2000/svg">
<rect y="0.79895" width="43.9433" height="43.1443" rx="14" fill="#106573"/>
<g clip-path="url(#clip0)">
<path d="M28.1626 9.59276L24.9508 9.58761C21.3424 9.58761 19.0105 11.9801 19.0105 15.6831V18.4935H15.7812C15.5021 18.4935 15.2762 18.7197 15.2762 18.9988V23.0707C15.2762 23.3498 15.5024 23.5758 15.7812 23.5758H19.0105V33.8506C19.0105 34.1297 19.2365 34.3557 19.5156 34.3557H23.7289C24.008 34.3557 24.234 34.1294 24.234 33.8506V23.5758H28.0098C28.2889 23.5758 28.5149 23.3498 28.5149 23.0707L28.5164 18.9988C28.5164 18.8648 28.4631 18.7365 28.3685 18.6416C28.2739 18.5468 28.1451 18.4935 28.0111 18.4935H24.234V16.111C24.234 14.966 24.5068 14.3847 25.9985 14.3847L28.1621 14.3839C28.4409 14.3839 28.6669 14.1576 28.6669 13.8788V10.0978C28.6669 9.81925 28.4412 9.59328 28.1626 9.59276Z" fill="#EFEFEF"/>
</g>
<defs>
<clipPath id="clip0">
<rect width="24.768" height="24.768" fill="white" transform="translate(9.58763 9.58761)"/>
</clipPath>
</defs>
</svg>
