<svg width="45" height="44" viewBox="0 0 45 44" fill="none" xmlns="http://www.w3.org/2000/svg">
<rect x="0.371155" y="0.79895" width="43.9433" height="43.1443" rx="14" fill="#106573"/>
<g clip-path="url(#clip0)">
<path d="M10.2828 17.3368H15.7634V33.8259H10.2828V17.3368Z" fill="#EFEFEF"/>
<path d="M13.0593 9.38787C11.1845 9.38787 9.95878 10.6189 9.95878 12.2369C9.95878 13.8193 11.1481 15.0854 12.9873 15.0854H13.023C14.9344 15.0854 16.1239 13.8193 16.1239 12.2369C16.0882 10.6189 14.9344 9.38787 13.0593 9.38787Z" fill="#EFEFEF"/>
<path d="M29.2162 16.9498C26.3082 16.9498 25.0052 18.5479 24.2768 19.6717V17.3368H18.796V33.8259H24.2766V24.6176C24.2766 24.1247 24.3123 23.6326 24.4571 23.2801C24.8532 22.2956 25.755 21.2758 27.2691 21.2758C29.2522 21.2758 30.0456 22.788 30.0456 25.0046V33.8259H35.5258V24.3713C35.5258 19.3065 32.8219 16.9498 29.2162 16.9498Z" fill="#EFEFEF"/>
</g>
<defs>
<clipPath id="clip0">
<rect width="25.567" height="25.567" fill="white" transform="translate(9.95878 8.78864)"/>
</clipPath>
</defs>
</svg>
