<svg xmlns="http://www.w3.org/2000/svg" width="40" height="40" viewBox="0 0 40 40">
  <g id="Grupo_259" data-name="Grupo 259" transform="translate(-1794 -46)">
    <g id="Social_CTA_Tablet" data-name="Social CTA Tablet" transform="translate(1794 46)">
      <g id="Grupo_53" data-name="Grupo 53" transform="translate(-784 -248)">
        <path id="Caminho_85" data-name="Caminho 85" d="M20,0A20,20,0,1,1,0,20,20,20,0,0,1,20,0Z" transform="translate(784 248)" fill="#fff"/>
      </g>
    </g>
    <g id="Page-1" transform="translate(1806.003 58.583)">
      <g id="_003---Call" data-name="003---Call" transform="translate(-0.003)">
        <path id="Shape" d="M7.39,9.088A6.23,6.23,0,0,1,5.508,5.551a.529.529,0,0,1,.152-.443L6.853,3.916a.532.532,0,0,0,.075-.659L5.029.31A.532.532,0,0,0,4.34.116L1.292,1.551A.529.529,0,0,0,1,2.08a14.732,14.732,0,0,0,4.486,8.911A14.728,14.728,0,0,0,14.4,15.477a.529.529,0,0,0,.529-.293l1.435-3.048a.532.532,0,0,0-.193-.689L13.22,9.55a.532.532,0,0,0-.659.075L11.37,10.817a.529.529,0,0,1-.443.152A6.23,6.23,0,0,1,7.39,9.088Z" transform="translate(-0.997 -0.044)" fill="#106573"/>
        <path id="Shape-2" data-name="Shape" d="M33.057,15.589a.532.532,0,0,1-.532-.532,4,4,0,0,0-3.992-3.992.532.532,0,0,1,0-1.065,5.062,5.062,0,0,1,5.057,5.057A.532.532,0,0,1,33.057,15.589Z" transform="translate(-20.813 -7.339)" fill="#106573"/>
        <path id="Shape-3" data-name="Shape" d="M35.718,8.251a.532.532,0,0,1-.532-.532,6.661,6.661,0,0,0-6.654-6.654.532.532,0,0,1,0-1.065,7.727,7.727,0,0,1,7.718,7.718.532.532,0,0,1-.532.532Z" transform="translate(-20.813)" fill="#106573"/>
      </g>
    </g>
  </g>
</svg>
