<svg id="Capa_1" enable-background="new 0 0 511.756 511.756" height="512" viewBox="0 0 511.756 511.756" width="512" xmlns="http://www.w3.org/2000/svg"><g><path d="m113.834 0c-24.813 0-45 20.187-45 45v15.826h-32.456v30h32.456v44.438h-32.456v30h32.456v44.438h-32.456v30h32.456v44.438h-32.456v30h32.456v44.438h-32.456v30h32.456v77.511c0 25.18 20.485 45.665 45.665 45.665h330.879v-61.33h30v-450.424zm301.544 481.756h-300.879c-8.638 0-15.665-7.027-15.665-15.665s7.027-15.665 15.665-15.665h300.879zm30-61.33h-330.879c-5.5 0-10.777.978-15.665 2.769v-34.615h35v-30h-35v-44.438h35v-30h-35v-44.438h35v-30h-35v-44.438h35v-30h-35v-44.44h35v-30h-35v-15.826c0-8.271 6.729-15 15-15h331.544z"/><path d="m272.105 336.762c61.508 0 111.549-50.041 111.549-111.549s-50.041-111.549-111.549-111.549-111.548 50.041-111.548 111.549 50.041 111.549 111.548 111.549zm0-103.098c-8.271 0-14.999-6.729-14.999-15s6.729-15 14.999-15c8.271 0 15 6.729 15 15s-6.728 15-15 15zm-29.668 67.486v-22.486c0-8.271 6.729-15 15-15h29.339c8.271 0 15 6.729 15 15v22.486c-9.202 3.608-19.204 5.612-29.67 5.612s-20.467-2.004-29.669-5.612zm29.668-157.486c44.966 0 81.549 36.583 81.549 81.549 0 21.426-8.318 40.936-21.879 55.504v-2.053c0-15.812-8.204-29.735-20.572-37.763 3.748-6.564 5.902-14.151 5.902-22.237 0-24.813-20.187-45-45-45s-45 20.187-45 45c0 8.085 2.154 15.673 5.903 22.237-12.368 8.028-20.572 21.951-20.572 37.763v2.054c-13.561-14.568-21.879-34.079-21.879-55.505 0-44.966 36.583-81.549 81.548-81.549z"/></g></svg>