<svg xmlns="http://www.w3.org/2000/svg" width="35" height="27.221" viewBox="0 0 35 27.221">
  <g id="inbox" transform="translate(-2 -29)">
    <g id="Grupo_235" data-name="Grupo 235" transform="translate(14.585 48.856)">
      <g id="Grupo_234" data-name="Grupo 234">
        <path id="Caminho_15" data-name="Caminho 15" d="M192.879,332.734H185.16a1.056,1.056,0,0,0-1.055,1.055v2.368a1.056,1.056,0,0,0,1.055,1.055h7.719a1.056,1.056,0,0,0,1.055-1.055v-2.368A1.056,1.056,0,0,0,192.879,332.734Zm-.3,3.121h-7.116v-1.765h7.116Z" transform="translate(-184.105 -332.734)" fill="#fff"/>
      </g>
    </g>
    <g id="Grupo_237" data-name="Grupo 237" transform="translate(2 29)">
      <g id="Grupo_236" data-name="Grupo 236">
        <path id="Caminho_16" data-name="Caminho 16" d="M34.657,69.894l.011-.005L29.581,59.833a2.39,2.39,0,0,0-2.143-1.318h-.967V57.58a.678.678,0,0,0-.678-.678H9.207a.678.678,0,0,0-.678.678v.935H7.562a2.39,2.39,0,0,0-2.143,1.318L.333,69.889l.011.005A2.361,2.361,0,0,0,0,71.123V81.747a2.378,2.378,0,0,0,2.376,2.376H32.624A2.378,2.378,0,0,0,35,81.747V71.123A2.361,2.361,0,0,0,34.657,69.894Zm-8.185-9.872h.967a.89.89,0,0,1,.8.491L32.4,68.748H29.569V66.214a.678.678,0,0,0-.678-.678h-.839V61.9a.678.678,0,0,0-.678-.678h-.9Zm1.741,6.87v1.856H24.633a1.567,1.567,0,0,0-1.426.922l-.977,2.168a.057.057,0,0,1-.052.034H12.823a.057.057,0,0,1-.052-.034l-.977-2.168a1.567,1.567,0,0,0-1.426-.922H6.787V66.892ZM9.885,58.259h15.23v2.96H9.885ZM26.7,62.575v2.96H8.3v-2.96ZM6.764,60.513a.89.89,0,0,1,.8-.491h.967v1.2h-.9a.678.678,0,0,0-.678.678v3.639H6.109a.678.678,0,0,0-.678.678v2.534H2.6Zm25.861,22.1H2.376a.869.869,0,0,1-.868-.868V71.123a.869.869,0,0,1,.868-.868h7.991a.058.058,0,0,1,.052.034l.977,2.168a1.567,1.567,0,0,0,1.426.922h9.355a1.567,1.567,0,0,0,1.426-.921l.977-2.168h0a.057.057,0,0,1,.052-.034h7.991a.869.869,0,0,1,.868.868V81.747h0A.869.869,0,0,1,32.624,82.615Z" transform="translate(0 -56.902)" fill="#fff"/>
      </g>
    </g>
  </g>
</svg>
