<svg xmlns="http://www.w3.org/2000/svg" width="35" height="22.814" viewBox="0 0 35 22.814">
  <g id="id-card" transform="translate(0 0)">
    <g id="Grupo_225" data-name="Grupo 225" transform="translate(0 0)">
      <g id="Grupo_224" data-name="Grupo 224">
        <path id="Caminho_10" data-name="Caminho 10" d="M32.771,89.13H2.229A2.232,2.232,0,0,0,0,91.359v18.356a2.232,2.232,0,0,0,2.229,2.229H32.771A2.232,2.232,0,0,0,35,109.715V91.359A2.232,2.232,0,0,0,32.771,89.13Zm.743,20.585a.744.744,0,0,1-.743.743H2.229a.744.744,0,0,1-.743-.743V91.359a.744.744,0,0,1,.743-.743H32.771a.744.744,0,0,1,.743.743Z" transform="translate(0 -89.13)" fill="#fff"/>
      </g>
    </g>
    <g id="Grupo_227" data-name="Grupo 227" transform="translate(20.137 6.52)">
      <g id="Grupo_226" data-name="Grupo 226">
        <path id="Caminho_11" data-name="Caminho 11" d="M303.289,184.506h-7.975a.743.743,0,0,0,0,1.486h7.975a.743.743,0,1,0,0-1.486Z" transform="translate(-294.571 -184.506)" fill="#fff"/>
      </g>
    </g>
    <g id="Grupo_229" data-name="Grupo 229" transform="translate(20.137 10.664)">
      <g id="Grupo_228" data-name="Grupo 228">
        <path id="Caminho_12" data-name="Caminho 12" d="M303.289,245.129h-7.975a.743.743,0,0,0,0,1.486h7.975a.743.743,0,1,0,0-1.486Z" transform="translate(-294.571 -245.129)" fill="#fff"/>
      </g>
    </g>
    <g id="Grupo_231" data-name="Grupo 231" transform="translate(20.137 14.808)">
      <g id="Grupo_230" data-name="Grupo 230">
        <path id="Caminho_13" data-name="Caminho 13" d="M303.289,305.752h-7.975a.743.743,0,0,0,0,1.486h7.975a.743.743,0,1,0,0-1.486Z" transform="translate(-294.571 -305.752)" fill="#fff"/>
      </g>
    </g>
    <g id="Grupo_233" data-name="Grupo 233" transform="translate(3.856 3.228)">
      <g id="Grupo_232" data-name="Grupo 232">
        <path id="Caminho_14" data-name="Caminho 14" d="M66.281,146.873a1.765,1.765,0,0,1-1.742-1.416,4.262,4.262,0,0,0,1.211-1.582c.022,0,.044,0,.066,0a.669.669,0,0,0,.528-.258,4.53,4.53,0,0,0,.914-2.93,3.919,3.919,0,0,0-3.576-4.056c-.053,0-.1,0-.138,0h0a3.394,3.394,0,0,0-1.473-.282,3.68,3.68,0,0,0-2.814,1.519,5.385,5.385,0,0,0-.967,3.9,5.34,5.34,0,0,0,.431,1.5.669.669,0,0,0,.568.39.66.66,0,0,0,.2-.018,4.371,4.371,0,0,0,1.313,1.81,1.769,1.769,0,0,1-1.743,1.419,2.73,2.73,0,0,0-2.637,2.725v2.708a.669.669,0,0,0,.669.669H68.25a.669.669,0,0,0,.669-.669V149.6A2.73,2.73,0,0,0,66.281,146.873ZM59.62,141.65l-.009-.062a3.908,3.908,0,0,1-.037-.439,3.833,3.833,0,0,1,.741-2.46,2.369,2.369,0,0,1,1.8-1,1.9,1.9,0,0,1,1.007.223.6.6,0,0,0,.318.07l.224-.01a2.633,2.633,0,0,1,2.261,2.761,3.559,3.559,0,0,1-.02.513,3.971,3.971,0,0,0-1.883-1.677.669.669,0,0,0-.886.385,2.879,2.879,0,0,1-.186.4,1.016,1.016,0,0,1-.938.487c-.08,0-.161,0-.241,0a3.58,3.58,0,0,0-1.139.223A3.618,3.618,0,0,0,59.62,141.65Zm.932.971a2.68,2.68,0,0,1,.545-.3,2.351,2.351,0,0,1,.863-.138,2.353,2.353,0,0,0,2.086-1.061,2.789,2.789,0,0,1,.82,1.031c-.207,1.5-1.141,2.643-2.2,2.643C61.719,144.8,60.87,143.9,60.552,142.62Zm1.47,3.438a2.8,2.8,0,0,0,.643.075,2.844,2.844,0,0,0,.647-.075,3.077,3.077,0,0,0,1.262,1.657,2.028,2.028,0,0,1-3.813,0A3.077,3.077,0,0,0,62.022,146.058Zm-4.269,5.579V149.6a1.391,1.391,0,0,1,1.39-1.39c.015,0,.259-.014.364-.028a3.366,3.366,0,0,0,6.321,0c.1.014.348.028.364.028a1.391,1.391,0,0,1,1.39,1.39v2.039Z" transform="translate(-56.415 -136.354)" fill="#fff"/>
      </g>
    </g>
  </g>
</svg>
