<svg id="mail" xmlns="http://www.w3.org/2000/svg" width="35" height="32.247" viewBox="0 0 35 32.247">
  <g id="Grupo_240" data-name="Grupo 240" transform="translate(0 11.07)">
    <g id="Grupo_239" data-name="Grupo 239">
      <path id="Caminho_18" data-name="Caminho 18" d="M34.976,183.647a1.573,1.573,0,0,0-1.573-1.571h0l-31.829.044A1.573,1.573,0,0,0,0,183.695l.025,17.987A1.575,1.575,0,0,0,1.6,203.253h0l31.829-.044A1.573,1.573,0,0,0,35,201.634Zm-3.3,0L17.5,193.5,3.3,183.69Zm-8.264,11.431,8.453,6.556-28.748.04,8.5-6.6a.786.786,0,1,0-.964-1.243L1.6,200.864l-.023-16.455,15.482,10.7a.787.787,0,0,0,.9,0L33.4,184.365l.024,16.5-9.053-7.022a.787.787,0,0,0-.964,1.243Z" transform="translate(-0.001 -182.076)" fill="#fff"/>
    </g>
  </g>
  <g id="Grupo_242" data-name="Grupo 242" transform="translate(13.511 0)">
    <g id="Grupo_241" data-name="Grupo 241">
      <path id="Caminho_19" data-name="Caminho 19" d="M205.365,23.026,202.5,20.47a1.3,1.3,0,0,0-1.731,0l-2.861,2.556a.787.787,0,0,0,1.048,1.173l1.892-1.69v6.062a.786.786,0,1,0,1.573,0V22.509l1.892,1.69a.787.787,0,0,0,1.048-1.173Z" transform="translate(-197.65 -20.14)" fill="#fff"/>
    </g>
  </g>
</svg>
