<svg width="37" height="41" viewBox="0 0 37 41" fill="none" xmlns="http://www.w3.org/2000/svg">
<g filter="url(#filter0_d)">
<path d="M18.2648 15.8962C20.4486 15.8962 22.3394 15.113 23.8848 13.5676C25.4297 12.0225 26.2132 10.132 26.2132 7.94786C26.2132 5.76451 25.4299 3.87373 23.8845 2.32811C22.3392 0.783255 20.4484 0 18.2648 0C16.0807 0 14.1901 0.783255 12.645 2.32836C11.0999 3.87347 10.3164 5.76426 10.3164 7.94786C10.3164 10.132 11.0999 12.0227 12.645 13.5679C14.1906 15.1127 16.0814 15.8962 18.2648 15.8962ZM14.0126 3.69572C15.1982 2.51014 16.589 1.93384 18.2648 1.93384C19.9403 1.93384 21.3313 2.51014 22.5172 3.69572C23.7028 4.88156 24.2793 6.27259 24.2793 7.94786C24.2793 9.62364 23.7028 11.0144 22.5172 12.2002C21.3313 13.3861 19.9403 13.9624 18.2648 13.9624C16.5895 13.9624 15.1987 13.3858 14.0126 12.2002C12.8268 11.0147 12.2503 9.62364 12.2503 7.94786C12.2503 6.27259 12.8268 4.88156 14.0126 3.69572Z" fill="white"/>
<path d="M32.1724 25.3754C32.1278 24.7324 32.0377 24.0309 31.905 23.2902C31.771 22.544 31.5986 21.8385 31.3921 21.1937C31.1786 20.5273 30.8888 19.8692 30.5301 19.2385C30.1582 18.5839 29.7211 18.0139 29.2307 17.5448C28.7178 17.0541 28.0899 16.6596 27.3638 16.3718C26.6402 16.0856 25.8383 15.9406 24.9806 15.9406C24.6437 15.9406 24.3179 16.0788 23.6887 16.4884C23.3015 16.7409 22.8486 17.033 22.343 17.356C21.9107 17.6314 21.3251 17.8895 20.6018 18.1231C19.8961 18.3515 19.1795 18.4673 18.4721 18.4673C17.7651 18.4673 17.0485 18.3515 16.3423 18.1231C15.6198 17.8898 15.0339 17.6317 14.6023 17.3563C14.1016 17.0363 13.6484 16.7442 13.2554 16.4882C12.6267 16.0785 12.3009 15.9403 11.9641 15.9403C11.106 15.9403 10.3044 16.0856 9.58105 16.3721C8.85545 16.6594 8.22728 17.0539 7.71392 17.5451C7.22347 18.0144 6.7864 18.5841 6.41479 19.2385C6.05652 19.8692 5.76648 20.527 5.55298 21.194C5.34678 21.8388 5.17432 22.544 5.04037 23.2902C4.90744 24.0299 4.81756 24.7316 4.773 25.3761C4.72919 26.0063 4.70703 26.6622 4.70703 27.3248C4.70703 29.0474 5.25463 30.442 6.33447 31.4705C7.40097 32.4853 8.81189 33 10.5282 33H26.4179C28.1337 33 29.5446 32.4853 30.6114 31.4705C31.6915 30.4427 32.2391 29.0477 32.2391 27.3246C32.2388 26.6596 32.2164 26.0038 32.1724 25.3754ZM29.278 30.0694C28.5733 30.7401 27.6377 31.0661 26.4177 31.0661H10.5282C9.30788 31.0661 8.3723 30.7401 7.66785 30.0696C6.97674 29.4117 6.64088 28.5137 6.64088 27.3248C6.64088 26.7065 6.66127 26.0959 6.70206 25.5098C6.74184 24.9348 6.82316 24.3031 6.94376 23.6319C7.06284 22.969 7.21441 22.3468 7.39468 21.7836C7.56764 21.2436 7.80355 20.7088 8.09611 20.1937C8.37532 19.7028 8.69658 19.2815 9.05107 18.9422C9.38265 18.6247 9.80059 18.3648 10.2931 18.17C10.7485 17.9897 11.2604 17.891 11.816 17.8762C11.8837 17.9122 12.0043 17.9809 12.1997 18.1083C12.5973 18.3674 13.0555 18.6629 13.562 18.9865C14.133 19.3505 14.8687 19.6793 15.7477 19.9631C16.6462 20.2536 17.5627 20.4012 18.4723 20.4012C19.382 20.4012 20.2986 20.2536 21.1967 19.9633C22.0764 19.6791 22.8118 19.3505 23.3836 18.986C23.902 18.6546 24.3474 18.3676 24.7449 18.1083C24.9403 17.9812 25.0609 17.9122 25.1286 17.8762C25.6845 17.891 26.1964 17.9897 26.6521 18.17C27.1443 18.3648 27.5622 18.6249 27.8938 18.9422C28.2483 19.2813 28.5695 19.7025 28.8488 20.194C29.1416 20.7088 29.3777 21.2438 29.5504 21.7834C29.731 22.3473 29.8828 22.9692 30.0016 23.6316C30.122 24.3041 30.2035 24.936 30.2433 25.5101V25.5106C30.2843 26.0944 30.305 26.7047 30.3052 27.3248C30.305 28.5139 29.9691 29.4117 29.278 30.0694Z" fill="white"/>
</g>
<defs>
<filter id="filter0_d" x="-2" y="0" width="41" height="41" filterUnits="userSpaceOnUse" color-interpolation-filters="sRGB">
<feFlood flood-opacity="0" result="BackgroundImageFix"/>
<feColorMatrix in="SourceAlpha" type="matrix" values="0 0 0 0 0 0 0 0 0 0 0 0 0 0 0 0 0 0 127 0"/>
<feOffset dy="4"/>
<feGaussianBlur stdDeviation="2"/>
<feColorMatrix type="matrix" values="0 0 0 0 0 0 0 0 0 0 0 0 0 0 0 0 0 0 0.25 0"/>
<feBlend mode="normal" in2="BackgroundImageFix" result="effect1_dropShadow"/>
<feBlend mode="normal" in="SourceGraphic" in2="effect1_dropShadow" result="shape"/>
</filter>
</defs>
</svg>
