<svg width="42" height="40" viewBox="0 0 42 40" fill="none" xmlns="http://www.w3.org/2000/svg">
<g filter="url(#filter0_d)">
<path d="M29.1419 19.3238C26.8544 16.5619 23.9629 15.0408 21 15.0408C18.0371 15.0408 15.1455 16.5619 12.8581 19.3238C10.802 21.8064 9.57446 24.9352 9.57446 27.6934C9.57446 29.0332 9.98406 30.0537 10.7918 30.7267C11.5891 31.3911 12.6417 31.6158 13.816 31.6157C15.0656 31.6157 16.4531 31.3612 17.8163 31.1111C19.0076 30.8926 20.1328 30.6862 21.0001 30.6862C21.7486 30.6862 22.804 30.8821 23.9211 31.0895C26.532 31.5743 29.4914 32.1236 31.2009 30.7022C32.0135 30.0265 32.4256 29.0142 32.4256 27.6934C32.4256 24.9352 31.1981 21.8064 29.1419 19.3238Z" fill="white"/>
<path d="M29.3757 4.32612C28.5388 3.09209 27.3403 2.3844 26.0875 2.3844C24.8347 2.3844 23.6362 3.09216 22.7993 4.32612C22.0304 5.45974 21.6069 6.94843 21.6069 8.51801C21.6069 10.0876 22.0303 11.5763 22.7993 12.7099C23.6362 13.9439 24.8347 14.6516 26.0875 14.6516C27.3403 14.6516 28.5388 13.9439 29.3757 12.7099C30.1446 11.5763 30.5681 10.0876 30.5681 8.51801C30.5681 6.94843 30.1447 5.45967 29.3757 4.32612Z" fill="white"/>
<path d="M19.2007 4.326C18.3637 3.09197 17.1653 2.38428 15.9124 2.38428C14.6596 2.38428 13.4611 3.09203 12.6242 4.326C11.8554 5.45962 11.4319 6.94831 11.4319 8.51789C11.4319 10.0875 11.8553 11.5762 12.6242 12.7098C13.4612 13.9438 14.6596 14.6516 15.9124 14.6516C17.1653 14.6516 18.3637 13.9438 19.2007 12.7098C19.9695 11.5762 20.393 10.0875 20.393 8.51789C20.3929 6.94831 19.9695 5.45955 19.2007 4.326Z" fill="white"/>
<path d="M37.802 13.9541C37.4646 12.8063 36.7414 11.9724 35.7657 11.6059C34.9805 11.3109 34.0941 11.3609 33.2699 11.7467C32.134 12.2782 31.2056 13.3758 30.7228 14.7579C30.3283 15.8873 30.2791 17.0811 30.5844 18.1195C30.9218 19.2673 31.645 20.1013 32.6208 20.4678C32.9585 20.5946 33.3147 20.6576 33.6768 20.6576C34.1567 20.6576 34.6468 20.5468 35.1166 20.3269C36.2525 19.7954 37.1809 18.6978 37.6637 17.3158V17.3157C38.0581 16.1864 38.1073 14.9925 37.802 13.9541Z" fill="white"/>
<path d="M11.2772 14.7578C10.7944 13.3757 9.86595 12.2782 8.73013 11.7467C7.90583 11.3609 7.01944 11.311 6.23432 11.6058C5.25855 11.9724 4.53532 12.8064 4.19791 13.9541C3.89264 14.9925 3.94185 16.1863 4.33636 17.3157V17.3158C4.81927 18.6979 5.74763 19.7954 6.88344 20.3269C7.35333 20.5468 7.84335 20.6576 8.32326 20.6576C8.68531 20.6576 9.04165 20.5945 9.37926 20.4677C10.3552 20.1012 11.0783 19.2672 11.4157 18.1195C11.7209 17.0812 11.6717 15.8873 11.2772 14.7578Z" fill="white"/>
</g>
<defs>
<filter id="filter0_d" x="0" y="0" width="42" height="42" filterUnits="userSpaceOnUse" color-interpolation-filters="sRGB">
<feFlood flood-opacity="0" result="BackgroundImageFix"/>
<feColorMatrix in="SourceAlpha" type="matrix" values="0 0 0 0 0 0 0 0 0 0 0 0 0 0 0 0 0 0 127 0"/>
<feOffset dy="4"/>
<feGaussianBlur stdDeviation="2"/>
<feColorMatrix type="matrix" values="0 0 0 0 0 0 0 0 0 0 0 0 0 0 0 0 0 0 0.25 0"/>
<feBlend mode="normal" in2="BackgroundImageFix" result="effect1_dropShadow"/>
<feBlend mode="normal" in="SourceGraphic" in2="effect1_dropShadow" result="shape"/>
</filter>
</defs>
</svg>
