<svg width="36" height="36" viewBox="0 0 36 36" fill="none" xmlns="http://www.w3.org/2000/svg">
<path d="M31.5 1.125C31.0524 1.125 30.6232 1.30279 30.3068 1.61926C29.9903 1.93573 29.8125 2.36495 29.8125 2.8125C29.8135 3.06309 29.8712 3.3102 29.9812 3.53531L29.4103 4.10625C29.1852 3.99616 28.9381 3.93847 28.6875 3.9375C28.2399 3.9375 27.8107 4.11529 27.4943 4.43176C27.1778 4.74823 27 5.17745 27 5.625C27.001 5.87559 27.0587 6.1227 27.1687 6.34781L26.5978 6.91875C26.3727 6.80866 26.1256 6.75097 25.875 6.75C25.4274 6.75 24.9982 6.92779 24.6818 7.24426C24.3653 7.56073 24.1875 7.98995 24.1875 8.4375C24.1885 8.68809 24.2462 8.9352 24.3562 9.16031L23.7853 9.73125C23.5602 9.62116 23.3131 9.56347 23.0625 9.5625C22.6149 9.5625 22.1857 9.74029 21.8693 10.0568C21.5528 10.3732 21.375 10.8024 21.375 11.25C21.376 11.5006 21.4337 11.7477 21.5437 11.9728L21.1421 12.375H20.25V11.8125C20.25 11.6633 20.1907 11.5202 20.0852 11.4148C19.9798 11.3093 19.8367 11.25 19.6875 11.25H16.3125C16.1633 11.25 16.0202 11.3093 15.9148 11.4148C15.8093 11.5202 15.75 11.6633 15.75 11.8125V12.375H14.8579L14.4557 11.9728C14.566 11.7477 14.6239 11.5006 14.625 11.25C14.625 10.8024 14.4472 10.3732 14.1307 10.0568C13.8143 9.74029 13.3851 9.5625 12.9375 9.5625C12.6869 9.56347 12.4398 9.62116 12.2147 9.73125L11.6438 9.16031C11.7538 8.9352 11.8115 8.68809 11.8125 8.4375C11.8125 7.98995 11.6347 7.56073 11.3182 7.24426C11.0018 6.92779 10.5726 6.75 10.125 6.75C9.87441 6.75097 9.6273 6.80866 9.40219 6.91875L8.83125 6.34781C8.94134 6.1227 8.99903 5.87559 9 5.625C9 5.17745 8.82221 4.74823 8.50574 4.43176C8.18928 4.11529 7.76005 3.9375 7.3125 3.9375C7.06191 3.93847 6.8148 3.99616 6.58969 4.10625L6.01875 3.53531C6.12884 3.3102 6.18653 3.06309 6.1875 2.8125C6.1875 2.47874 6.08853 2.15248 5.90311 1.87498C5.71768 1.59747 5.45413 1.38118 5.14578 1.25345C4.83743 1.12573 4.49813 1.09231 4.17079 1.15743C3.84344 1.22254 3.54276 1.38326 3.30676 1.61926C3.07076 1.85526 2.91004 2.15594 2.84493 2.48329C2.77981 2.81063 2.81323 3.14993 2.94095 3.45828C3.06868 3.76663 3.28497 4.03018 3.56248 4.21561C3.83998 4.40103 4.16624 4.5 4.5 4.5C4.75059 4.49903 4.9977 4.44134 5.22281 4.33125L5.79375 4.90219C5.68366 5.1273 5.62597 5.37441 5.625 5.625C5.625 6.07255 5.80279 6.50178 6.11926 6.81824C6.43573 7.13471 6.86495 7.3125 7.3125 7.3125C7.56309 7.31153 7.8102 7.25384 8.03531 7.14375L8.60625 7.71469C8.49616 7.9398 8.43847 8.18691 8.4375 8.4375C8.4375 8.88505 8.61529 9.31428 8.93176 9.63074C9.24823 9.94721 9.67745 10.125 10.125 10.125C10.3756 10.124 10.6227 10.0663 10.8478 9.95625L11.4187 10.5272C11.3087 10.7523 11.251 10.9994 11.25 11.25C11.25 11.6976 11.4278 12.1268 11.7443 12.4432C12.0607 12.7597 12.4899 12.9375 12.9375 12.9375C13.1881 12.9365 13.4352 12.8788 13.6603 12.7688L14.2273 13.3358C14.3329 13.441 14.4759 13.5001 14.625 13.5H15.75C15.75 13.6492 15.8093 13.7922 15.9148 13.8977L16.7175 14.7004C15.7743 14.802 14.8397 14.9711 13.9208 15.2066C13.3131 15.3791 12.7783 15.7453 12.3978 16.2495C12.0173 16.7537 11.8118 17.3683 11.8125 18V31.5C11.8155 32.1298 12.0217 32.7418 12.4005 33.2449C12.7792 33.7481 13.3102 34.1156 13.9146 34.2928C15.2454 34.6631 16.6187 34.8588 18 34.875C19.3813 34.8588 20.7546 34.6631 22.0854 34.2928C22.6898 34.1156 23.2208 33.7481 23.5995 33.2449C23.9783 32.7418 24.1845 32.1298 24.1875 31.5V18C24.1886 17.368 23.9831 16.7529 23.6025 16.2483C23.2218 15.7438 22.6867 15.3774 22.0787 15.2049C21.1599 14.9697 20.2254 14.8005 19.2825 14.6987L20.0852 13.896C20.1903 13.791 20.2495 13.6486 20.25 13.5H21.375C21.5242 13.5 21.6672 13.4407 21.7727 13.3352L22.3397 12.7688C22.5648 12.8788 22.8119 12.9365 23.0625 12.9375C23.5101 12.9375 23.9393 12.7597 24.2557 12.4432C24.5722 12.1268 24.75 11.6976 24.75 11.25C24.749 10.9994 24.6913 10.7523 24.5813 10.5272L25.1522 9.95625C25.3773 10.0663 25.6244 10.124 25.875 10.125C26.3226 10.125 26.7518 9.94721 27.0682 9.63074C27.3847 9.31428 27.5625 8.88505 27.5625 8.4375C27.5615 8.18691 27.5038 7.9398 27.3938 7.71469L27.9647 7.14375C28.1898 7.25384 28.4369 7.31153 28.6875 7.3125C29.1351 7.3125 29.5643 7.13471 29.8807 6.81824C30.1972 6.50178 30.375 6.07255 30.375 5.625C30.374 5.37441 30.3163 5.1273 30.2063 4.90219L30.7772 4.33125C31.0023 4.44134 31.2494 4.49903 31.5 4.5C31.9476 4.5 32.3768 4.32221 32.6932 4.00574C33.0097 3.68928 33.1875 3.26005 33.1875 2.8125C33.1875 2.36495 33.0097 1.93573 32.6932 1.61926C32.3768 1.30279 31.9476 1.125 31.5 1.125ZM4.5 3.375C4.38875 3.375 4.28 3.34201 4.18749 3.2802C4.09499 3.21839 4.02289 3.13054 3.98032 3.02776C3.93774 2.92498 3.9266 2.81188 3.94831 2.70276C3.97001 2.59365 4.02359 2.49342 4.10225 2.41475C4.18092 2.33609 4.28115 2.28251 4.39026 2.26081C4.49938 2.2391 4.61248 2.25024 4.71526 2.29282C4.81804 2.33539 4.90589 2.40749 4.9677 2.49999C5.02951 2.5925 5.0625 2.70125 5.0625 2.8125C5.0625 2.96169 5.00324 3.10476 4.89775 3.21025C4.79226 3.31574 4.64918 3.375 4.5 3.375ZM7.3125 6.1875C7.20125 6.1875 7.09249 6.15451 6.99999 6.0927C6.90749 6.03089 6.83539 5.94304 6.79282 5.84026C6.75024 5.73748 6.7391 5.62438 6.76081 5.51526C6.78251 5.40615 6.83609 5.30592 6.91475 5.22725C6.99342 5.14859 7.09365 5.09501 7.20276 5.07331C7.31188 5.0516 7.42498 5.06274 7.52776 5.10532C7.63054 5.14789 7.71839 5.21999 7.7802 5.31249C7.84201 5.40499 7.875 5.51375 7.875 5.625C7.875 5.77418 7.81574 5.91726 7.71025 6.02275C7.60476 6.12824 7.46168 6.1875 7.3125 6.1875ZM10.125 9C10.0137 9 9.90499 8.96701 9.81249 8.9052C9.71999 8.84339 9.64789 8.75554 9.60532 8.65276C9.56274 8.54998 9.5516 8.43688 9.57331 8.32776C9.59501 8.21865 9.64859 8.11842 9.72725 8.03975C9.80592 7.96109 9.90615 7.90751 10.0153 7.88581C10.1244 7.8641 10.2375 7.87524 10.3403 7.91782C10.443 7.96039 10.5309 8.03249 10.5927 8.12499C10.6545 8.21749 10.6875 8.32625 10.6875 8.4375C10.6875 8.58668 10.6282 8.72976 10.5227 8.83525C10.4173 8.94074 10.2742 9 10.125 9ZM12.9375 11.8125C12.8262 11.8125 12.7175 11.7795 12.625 11.7177C12.5325 11.6559 12.4604 11.568 12.4178 11.4653C12.3752 11.3625 12.3641 11.2494 12.3858 11.1403C12.4075 11.0311 12.4611 10.9309 12.5398 10.8523C12.6184 10.7736 12.7186 10.72 12.8278 10.6983C12.9369 10.6766 13.05 10.6877 13.1528 10.7303C13.2555 10.7729 13.3434 10.845 13.4052 10.9375C13.467 11.03 13.5 11.1387 13.5 11.25C13.5 11.3992 13.4407 11.5423 13.3352 11.6477C13.2298 11.7532 13.0867 11.8125 12.9375 11.8125ZM16.875 12.375H19.125V13.2671L18 14.3921L16.875 13.2671V12.375ZM18.5625 16.3125C18.5625 16.4238 18.5295 16.5325 18.4677 16.625C18.4059 16.7175 18.318 16.7896 18.2153 16.8322C18.1125 16.8748 17.9994 16.8859 17.8903 16.8642C17.7811 16.8425 17.6809 16.7889 17.6023 16.7102C17.5236 16.6316 17.47 16.5314 17.4483 16.4222C17.4266 16.3131 17.4377 16.2 17.4803 16.0972C17.5229 15.9945 17.595 15.9066 17.6875 15.8448C17.78 15.783 17.8887 15.75 18 15.75C18.1492 15.75 18.2923 15.8093 18.3977 15.9148C18.5032 16.0202 18.5625 16.1633 18.5625 16.3125ZM19.6217 15.8721C20.354 15.9701 21.08 16.1112 21.7957 16.2945C22.1638 16.4021 22.4867 16.6268 22.7154 16.9347C22.944 17.2425 23.0659 17.6166 23.0625 18V31.5C23.0589 31.8828 22.9337 32.2546 22.7048 32.5615C22.476 32.8684 22.1554 33.0945 21.7896 33.2072C20.5552 33.5514 19.2814 33.7339 18 33.75C16.7186 33.7339 15.4448 33.5514 14.2104 33.2072C13.8446 33.0945 13.524 32.8684 13.2952 32.5615C13.0663 32.2546 12.9411 31.8828 12.9375 31.5V18C12.9341 17.6166 13.0558 17.2425 13.2844 16.9345C13.5129 16.6266 13.8357 16.4017 14.2037 16.2939C14.9197 16.1107 15.6458 15.9696 16.3783 15.8715C16.3365 16.0148 16.3144 16.1632 16.3125 16.3125C16.3125 16.7601 16.4903 17.1893 16.8068 17.5057C17.1232 17.8222 17.5524 18 18 18C18.4476 18 18.8768 17.8222 19.1932 17.5057C19.5097 17.1893 19.6875 16.7601 19.6875 16.3125C19.6856 16.1634 19.6634 16.0152 19.6217 15.8721ZM23.0625 11.8125C22.9512 11.8125 22.8425 11.7795 22.75 11.7177C22.6575 11.6559 22.5854 11.568 22.5428 11.4653C22.5002 11.3625 22.4891 11.2494 22.5108 11.1403C22.5325 11.0311 22.5861 10.9309 22.6648 10.8523C22.7434 10.7736 22.8436 10.72 22.9528 10.6983C23.0619 10.6766 23.175 10.6877 23.2778 10.7303C23.3805 10.7729 23.4684 10.845 23.5302 10.9375C23.592 11.03 23.625 11.1387 23.625 11.25C23.625 11.3992 23.5657 11.5423 23.4602 11.6477C23.3548 11.7532 23.2117 11.8125 23.0625 11.8125ZM25.875 9C25.7637 9 25.655 8.96701 25.5625 8.9052C25.47 8.84339 25.3979 8.75554 25.3553 8.65276C25.3127 8.54998 25.3016 8.43688 25.3233 8.32776C25.345 8.21865 25.3986 8.11842 25.4773 8.03975C25.5559 7.96109 25.6561 7.90751 25.7653 7.88581C25.8744 7.8641 25.9875 7.87524 26.0903 7.91782C26.193 7.96039 26.2809 8.03249 26.3427 8.12499C26.4045 8.21749 26.4375 8.32625 26.4375 8.4375C26.4375 8.58668 26.3782 8.72976 26.2727 8.83525C26.1673 8.94074 26.0242 9 25.875 9ZM28.6875 6.1875C28.5762 6.1875 28.4675 6.15451 28.375 6.0927C28.2825 6.03089 28.2104 5.94304 28.1678 5.84026C28.1252 5.73748 28.1141 5.62438 28.1358 5.51526C28.1575 5.40615 28.2111 5.30592 28.2898 5.22725C28.3684 5.14859 28.4686 5.09501 28.5778 5.07331C28.6869 5.0516 28.8 5.06274 28.9028 5.10532C29.0055 5.14789 29.0934 5.21999 29.1552 5.31249C29.217 5.40499 29.25 5.51375 29.25 5.625C29.25 5.77418 29.1907 5.91726 29.0852 6.02275C28.9798 6.12824 28.8367 6.1875 28.6875 6.1875ZM31.5 3.375C31.3887 3.375 31.28 3.34201 31.1875 3.2802C31.095 3.21839 31.0229 3.13054 30.9803 3.02776C30.9377 2.92498 30.9266 2.81188 30.9483 2.70276C30.97 2.59365 31.0236 2.49342 31.1023 2.41475C31.1809 2.33609 31.2811 2.28251 31.3903 2.26081C31.4994 2.2391 31.6125 2.25024 31.7153 2.29282C31.818 2.33539 31.9059 2.40749 31.9677 2.49999C32.0295 2.5925 32.0625 2.70125 32.0625 2.8125C32.0625 2.96169 32.0032 3.10476 31.8977 3.21025C31.7923 3.31574 31.6492 3.375 31.5 3.375Z" fill="white"/>
<path d="M16.3125 25.875H21.9375V19.125H16.3125V25.875ZM17.4375 20.25H20.8125V24.75H17.4375V20.25Z" fill="white"/>
<path d="M15.1875 19.125H14.0625V32.0625H15.1875V19.125Z" fill="white"/>
<path d="M17.4375 27H16.3125V32.0625H17.4375V27Z" fill="white"/>
<path d="M19.6875 27H18.5625V32.0625H19.6875V27Z" fill="white"/>
<path d="M21.9375 27H20.8125V32.0625H21.9375V27Z" fill="white"/>
</svg>
