<svg width="45" height="44" viewBox="0 0 45 44" fill="none" xmlns="http://www.w3.org/2000/svg">
<rect x="0.685547" y="0.79895" width="43.9433" height="43.1443" rx="14" fill="#106573"/>
<g clip-path="url(#clip0)">
<path d="M20.9411 23.6885C19.0346 21.782 18.6041 19.8755 18.507 19.1117C18.4798 18.9005 18.5525 18.6887 18.7036 18.5386L20.2465 16.9965C20.4734 16.7697 20.5137 16.4162 20.3436 16.1441L17.8871 12.3298C17.6989 12.0285 17.3125 11.9198 16.9948 12.0787L13.0513 13.936C12.7944 14.0625 12.6433 14.3354 12.6724 14.6203C12.8791 16.5832 13.7349 21.4087 18.477 26.1512C23.2192 30.8937 28.044 31.7492 30.008 31.9558C30.2929 31.985 30.5658 31.8339 30.6923 31.577L32.5496 27.6335C32.7079 27.3165 32.5999 26.9311 32.2999 26.7425L28.4855 24.2867C28.2136 24.1165 27.8601 24.1564 27.6331 24.3832L26.091 25.926C25.941 26.0771 25.7291 26.1498 25.5179 26.1226C24.7541 26.0255 22.8476 25.5951 20.9411 23.6885Z" fill="#EFEFEF"/>
<path d="M28.5117 22.6604C28.1313 22.6604 27.8229 22.352 27.8229 21.9716C27.8197 19.12 25.5088 16.8091 22.6572 16.8059C22.2768 16.8059 21.9684 16.4975 21.9684 16.1171C21.9684 15.7367 22.2768 15.4284 22.6572 15.4284C26.2693 15.4323 29.1965 18.3595 29.2005 21.9716C29.2005 22.352 28.8921 22.6604 28.5117 22.6604Z" fill="#EFEFEF"/>
<path d="M31.9555 22.6604C31.5751 22.6604 31.2668 22.352 31.2668 21.9716C31.2615 17.2189 27.4099 13.3674 22.6572 13.3621C22.2768 13.3621 21.9684 13.0537 21.9684 12.6733C21.9684 12.2929 22.2768 11.9845 22.6572 11.9845C28.1704 11.9906 32.6382 16.4584 32.6443 21.9716C32.6443 22.1543 32.5717 22.3295 32.4426 22.4587C32.3134 22.5878 32.1382 22.6604 31.9555 22.6604Z" fill="#EFEFEF"/>
</g>
<defs>
<clipPath id="clip0">
<rect width="19.9742" height="19.9742" fill="white" transform="translate(12.6701 11.9845)"/>
</clipPath>
</defs>
</svg>
