<svg width="61" height="60" viewBox="0 0 61 60" fill="none" xmlns="http://www.w3.org/2000/svg">
<rect width="61" height="60" rx="30" fill="#689EA6"/>
<path d="M30.7998 32.1924H27.2988V40H22.9043V18.6719H30.8291C33.3486 18.6719 35.292 19.2334 36.6592 20.3564C38.0264 21.4795 38.71 23.0664 38.71 25.1172C38.71 26.5723 38.3926 27.7881 37.7578 28.7646C37.1328 29.7314 36.1807 30.5029 34.9014 31.0791L39.5156 39.7949V40H34.7988L30.7998 32.1924ZM27.2988 28.6328H30.8438C31.9473 28.6328 32.8018 28.3545 33.4072 27.7979C34.0127 27.2314 34.3154 26.4551 34.3154 25.4688C34.3154 24.4629 34.0273 23.6719 33.4512 23.0957C32.8848 22.5195 32.0107 22.2314 30.8291 22.2314H27.2988V28.6328Z" fill="white"/>
</svg>
